<svg width="185" height="32" viewBox="0 0 185 32" fill="none" xmlns="http://www.w3.org/2000/svg">
<path d="M26.9665 1.1315V31H23.3585C22.8255 31 22.3745 30.918 22.0055 30.754C21.6502 30.5763 21.2948 30.2757 20.9395 29.852L6.856 12.0375C6.91067 12.5705 6.94483 13.0898 6.9585 13.5955C6.98583 14.0875 6.9995 14.5522 6.9995 14.9895V31H0.8905V1.1315H4.5395C4.84017 1.1315 5.093 1.14517 5.298 1.1725C5.503 1.19983 5.6875 1.2545 5.8515 1.3365C6.0155 1.40483 6.17267 1.50733 6.323 1.644C6.47333 1.78067 6.64417 1.96517 6.8355 2.1975L21.042 20.135C20.9737 19.561 20.9258 19.0075 20.8985 18.4745C20.8712 17.9278 20.8575 17.4153 20.8575 16.937V1.1315H26.9665ZM48.2955 17.8185C48.2955 17.3128 48.2271 16.8208 48.0905 16.3425C47.9675 15.8642 47.7556 15.4405 47.455 15.0715C47.168 14.6888 46.7853 14.3813 46.307 14.149C45.8286 13.9167 45.2478 13.8005 44.5645 13.8005C43.3618 13.8005 42.4188 14.149 41.7355 14.846C41.0521 15.5293 40.6011 16.5202 40.3825 17.8185H48.2955ZM40.3005 21.5085C40.5055 23.2852 41.0453 24.5767 41.92 25.383C42.7946 26.1757 43.9221 26.572 45.3025 26.572C46.0405 26.572 46.676 26.4832 47.209 26.3055C47.742 26.1278 48.2135 25.9297 48.6235 25.711C49.0471 25.4923 49.4298 25.2942 49.7715 25.1165C50.1268 24.9388 50.4958 24.85 50.8785 24.85C51.3841 24.85 51.7668 25.0345 52.0265 25.4035L53.8715 27.679C53.2155 28.4307 52.5048 29.0457 51.7395 29.524C50.9878 29.9887 50.2088 30.3577 49.4025 30.631C48.6098 30.8907 47.8103 31.0683 47.004 31.164C46.2113 31.2733 45.4528 31.328 44.7285 31.328C43.2388 31.328 41.838 31.0888 40.526 30.6105C39.2276 30.1185 38.0865 29.3942 37.1025 28.4375C36.1321 27.4808 35.36 26.2918 34.786 24.8705C34.2256 23.4492 33.9455 21.7955 33.9455 19.9095C33.9455 18.4882 34.1846 17.142 34.663 15.871C35.155 14.6 35.852 13.4862 36.754 12.5295C37.6696 11.5728 38.7698 10.8143 40.0545 10.254C41.3528 9.69366 42.8151 9.4135 44.4415 9.4135C45.8491 9.4135 47.1338 9.63217 48.2955 10.0695C49.4708 10.5068 50.4753 11.1423 51.309 11.976C52.1563 12.8097 52.8123 13.8347 53.277 15.051C53.7553 16.2537 53.9945 17.6203 53.9945 19.151C53.9945 19.6293 53.974 20.0188 53.933 20.3195C53.892 20.6202 53.8168 20.8593 53.7075 21.037C53.5981 21.2147 53.4478 21.3377 53.2565 21.406C53.0788 21.4743 52.8465 21.5085 52.5595 21.5085H40.3005ZM80.8402 31H74.7312C74.2802 31 73.9112 30.8907 73.6242 30.672C73.3508 30.4533 73.1322 30.1937 72.9682 29.893L69.1757 23.374C69.1073 23.6063 69.0253 23.825 68.9297 24.03C68.834 24.235 68.7315 24.4263 68.6222 24.604L65.5062 29.893C65.3148 30.1663 65.0893 30.4192 64.8297 30.6515C64.57 30.8838 64.2352 31 63.8252 31H58.1672L65.3012 20.012L58.4542 9.7415H64.5632C65.0142 9.7415 65.3422 9.803 65.5472 9.926C65.7658 10.0353 65.9572 10.2267 66.1212 10.5L69.9137 16.7935C69.9957 16.5475 70.0982 16.3083 70.2212 16.076C70.3442 15.83 70.4808 15.584 70.6312 15.338L73.3372 10.6025C73.5285 10.3018 73.7267 10.0832 73.9317 9.9465C74.1503 9.80983 74.4168 9.7415 74.7312 9.7415H80.5532L73.7062 19.725L80.8402 31ZM94.1014 31.328C93.0901 31.328 92.1949 31.1845 91.4159 30.8975C90.6506 30.5968 90.0014 30.18 89.4684 29.647C88.9491 29.1003 88.5528 28.4443 88.2794 27.679C88.0061 26.9137 87.8694 26.0595 87.8694 25.1165V14.1285H86.0654C85.7374 14.1285 85.4573 14.026 85.2249 13.821C84.9926 13.6023 84.8764 13.288 84.8764 12.878V10.3975L88.2589 9.7415L89.5094 4.555C89.6734 3.899 90.1381 3.571 90.9034 3.571H94.2244V9.7825H99.4929V14.1285H94.2244V24.686C94.2244 25.178 94.3406 25.588 94.5729 25.916C94.8189 26.2303 95.1674 26.3875 95.6184 26.3875C95.8508 26.3875 96.0421 26.367 96.1924 26.326C96.3564 26.2713 96.4931 26.2167 96.6024 26.162C96.7254 26.0937 96.8348 26.039 96.9304 25.998C97.0398 25.9433 97.1628 25.916 97.2994 25.916C97.4908 25.916 97.6411 25.9638 97.7504 26.0595C97.8734 26.1415 97.9964 26.2782 98.1194 26.4695L100.046 29.483C99.2264 30.098 98.3039 30.5627 97.2789 30.877C96.2539 31.1777 95.1948 31.328 94.1014 31.328ZM121.009 15.5225H131.628V28.13C130.098 29.2507 128.464 30.0638 126.729 30.5695C125.007 31.0752 123.203 31.328 121.317 31.328C118.857 31.328 116.615 30.9453 114.593 30.18C112.584 29.401 110.862 28.335 109.427 26.982C107.992 25.6153 106.885 24.0027 106.106 22.144C105.327 20.2717 104.937 18.2422 104.937 16.0555C104.937 13.8278 105.306 11.7847 106.044 9.926C106.782 8.05367 107.835 6.441 109.201 5.088C110.582 3.735 112.242 2.68267 114.183 1.931C116.137 1.17933 118.317 0.803499 120.722 0.803499C121.966 0.803499 123.134 0.905999 124.228 1.111C125.321 1.316 126.326 1.59617 127.241 1.9515C128.171 2.30683 129.018 2.7305 129.783 3.2225C130.549 3.7145 131.232 4.2475 131.833 4.8215L129.824 7.876C129.51 8.35433 129.1 8.64817 128.594 8.7575C128.102 8.86683 127.569 8.74383 126.995 8.3885C126.449 8.0605 125.929 7.78033 125.437 7.548C124.959 7.302 124.467 7.10383 123.961 6.9535C123.456 6.80317 122.923 6.69383 122.362 6.6255C121.802 6.55717 121.173 6.523 120.476 6.523C119.178 6.523 118.009 6.75533 116.971 7.22C115.932 7.671 115.044 8.31333 114.306 9.147C113.581 9.98067 113.021 10.9852 112.625 12.1605C112.228 13.3222 112.03 14.6205 112.03 16.0555C112.03 17.6408 112.249 19.0485 112.686 20.2785C113.124 21.5085 113.739 22.5472 114.531 23.3945C115.338 24.2418 116.294 24.891 117.401 25.342C118.522 25.7793 119.759 25.998 121.112 25.998C121.945 25.998 122.697 25.916 123.367 25.752C124.05 25.588 124.713 25.3693 125.355 25.096V20.5655H122.403C121.966 20.5655 121.624 20.4493 121.378 20.217C121.132 19.9847 121.009 19.6908 121.009 19.3355V15.5225ZM152.222 17.8185C152.222 17.3128 152.154 16.8208 152.017 16.3425C151.894 15.8642 151.683 15.4405 151.382 15.0715C151.095 14.6888 150.712 14.3813 150.234 14.149C149.756 13.9167 149.175 13.8005 148.491 13.8005C147.289 13.8005 146.346 14.149 145.662 14.846C144.979 15.5293 144.528 16.5202 144.309 17.8185H152.222ZM144.227 21.5085C144.432 23.2852 144.972 24.5767 145.847 25.383C146.722 26.1757 147.849 26.572 149.229 26.572C149.967 26.572 150.603 26.4832 151.136 26.3055C151.669 26.1278 152.14 25.9297 152.55 25.711C152.974 25.4923 153.357 25.2942 153.698 25.1165C154.054 24.9388 154.423 24.85 154.805 24.85C155.311 24.85 155.694 25.0345 155.953 25.4035L157.798 27.679C157.142 28.4307 156.432 29.0457 155.666 29.524C154.915 29.9887 154.136 30.3577 153.329 30.631C152.537 30.8907 151.737 31.0683 150.931 31.164C150.138 31.2733 149.38 31.328 148.655 31.328C147.166 31.328 145.765 31.0888 144.453 30.6105C143.155 30.1185 142.013 29.3942 141.029 28.4375C140.059 27.4808 139.287 26.2918 138.713 24.8705C138.153 23.4492 137.872 21.7955 137.872 19.9095C137.872 18.4882 138.112 17.142 138.59 15.871C139.082 14.6 139.779 13.4862 140.681 12.5295C141.597 11.5728 142.697 10.8143 143.981 10.254C145.28 9.69366 146.742 9.4135 148.368 9.4135C149.776 9.4135 151.061 9.63217 152.222 10.0695C153.398 10.5068 154.402 11.1423 155.236 11.976C156.083 12.8097 156.739 13.8347 157.204 15.051C157.682 16.2537 157.921 17.6203 157.921 19.151C157.921 19.6293 157.901 20.0188 157.86 20.3195C157.819 20.6202 157.744 20.8593 157.634 21.037C157.525 21.2147 157.375 21.3377 157.183 21.406C157.006 21.4743 156.773 21.5085 156.486 21.5085H144.227ZM170.655 12.0375C171.065 11.6548 171.488 11.2995 171.926 10.9715C172.363 10.6435 172.828 10.3702 173.32 10.1515C173.825 9.91917 174.365 9.7415 174.939 9.6185C175.527 9.48183 176.162 9.4135 176.846 9.4135C178.007 9.4135 179.032 9.6185 179.921 10.0285C180.823 10.4248 181.581 10.9852 182.196 11.7095C182.811 12.4202 183.276 13.2743 183.59 14.272C183.904 15.256 184.062 16.3288 184.062 17.4905V31H177.707V17.4905C177.707 16.4518 177.467 15.6455 176.989 15.0715C176.511 14.4838 175.807 14.19 174.878 14.19C174.181 14.19 173.525 14.3403 172.91 14.641C172.308 14.928 171.721 15.3243 171.147 15.83V31H164.792V9.7415H168.728C169.52 9.7415 170.04 10.0968 170.286 10.8075L170.655 12.0375Z" fill="white"/>
</svg>
