<svg width="157" height="86" viewBox="0 0 157 86" fill="none" xmlns="http://www.w3.org/2000/svg">
<path d="M29.7 20.31V42H27.63C27.31 42 27.04 41.95 26.82 41.85C26.61 41.74 26.405 41.56 26.205 41.31L14.88 26.85C14.94 27.51 14.97 28.12 14.97 28.68V42H11.415V20.31H13.53C13.7 20.31 13.845 20.32 13.965 20.34C14.095 20.35 14.205 20.38 14.295 20.43C14.395 20.47 14.49 20.535 14.58 20.625C14.67 20.705 14.77 20.815 14.88 20.955L26.25 35.475C26.22 35.125 26.195 34.78 26.175 34.44C26.155 34.1 26.145 33.785 26.145 33.495V20.31H29.7ZM46.0915 32.535C46.0915 32.055 46.0215 31.605 45.8815 31.185C45.7515 30.755 45.5515 30.38 45.2815 30.06C45.0115 29.74 44.6665 29.49 44.2465 29.31C43.8365 29.12 43.3565 29.025 42.8065 29.025C41.7365 29.025 40.8915 29.33 40.2715 29.94C39.6615 30.55 39.2715 31.415 39.1015 32.535H46.0915ZM39.0265 34.77C39.0865 35.56 39.2265 36.245 39.4465 36.825C39.6665 37.395 39.9565 37.87 40.3165 38.25C40.6765 38.62 41.1015 38.9 41.5915 39.09C42.0915 39.27 42.6415 39.36 43.2415 39.36C43.8415 39.36 44.3565 39.29 44.7865 39.15C45.2265 39.01 45.6065 38.855 45.9265 38.685C46.2565 38.515 46.5415 38.36 46.7815 38.22C47.0315 38.08 47.2715 38.01 47.5015 38.01C47.8115 38.01 48.0415 38.125 48.1915 38.355L49.2565 39.705C48.8465 40.185 48.3865 40.59 47.8765 40.92C47.3665 41.24 46.8315 41.5 46.2715 41.7C45.7215 41.89 45.1565 42.025 44.5765 42.105C44.0065 42.185 43.4515 42.225 42.9115 42.225C41.8415 42.225 40.8465 42.05 39.9265 41.7C39.0065 41.34 38.2065 40.815 37.5265 40.125C36.8465 39.425 36.3115 38.565 35.9215 37.545C35.5315 36.515 35.3365 35.325 35.3365 33.975C35.3365 32.925 35.5065 31.94 35.8465 31.02C36.1865 30.09 36.6715 29.285 37.3015 28.605C37.9415 27.915 38.7165 27.37 39.6265 26.97C40.5465 26.57 41.5815 26.37 42.7315 26.37C43.7015 26.37 44.5965 26.525 45.4165 26.835C46.2365 27.145 46.9415 27.6 47.5315 28.2C48.1215 28.79 48.5815 29.52 48.9115 30.39C49.2515 31.25 49.4215 32.235 49.4215 33.345C49.4215 33.905 49.3615 34.285 49.2415 34.485C49.1215 34.675 48.8915 34.77 48.5515 34.77H39.0265ZM68.4075 42H64.8375C64.5675 42 64.3475 41.93 64.1775 41.79C64.0175 41.65 63.8825 41.49 63.7725 41.31L60.5175 35.955C60.4675 36.125 60.4075 36.285 60.3375 36.435C60.2775 36.585 60.2075 36.725 60.1275 36.855L57.2475 41.31C57.1375 41.48 57.0025 41.64 56.8425 41.79C56.6825 41.93 56.4825 42 56.2425 42H52.9275L58.2075 34.065L53.1375 26.61H56.7075C56.9775 26.61 57.1775 26.65 57.3075 26.73C57.4375 26.8 57.5525 26.92 57.6525 27.09L60.8775 32.22C60.9875 31.88 61.1425 31.545 61.3425 31.215L63.9375 27.165C64.1575 26.795 64.4425 26.61 64.7925 26.61H68.1975L63.1425 33.9L68.4075 42ZM78.1713 42.24C76.8313 42.24 75.8013 41.865 75.0813 41.115C74.3713 40.355 74.0163 39.31 74.0163 37.98V29.385H72.4413C72.2413 29.385 72.0713 29.32 71.9313 29.19C71.7913 29.06 71.7213 28.865 71.7213 28.605V27.135L74.1963 26.73L74.9763 22.53C75.0263 22.33 75.1213 22.175 75.2613 22.065C75.4013 21.955 75.5813 21.9 75.8013 21.9H77.7213V26.745H81.8313V29.385H77.7213V37.725C77.7213 38.205 77.8363 38.58 78.0663 38.85C78.3063 39.12 78.6313 39.255 79.0413 39.255C79.2713 39.255 79.4613 39.23 79.6113 39.18C79.7713 39.12 79.9063 39.06 80.0163 39C80.1363 38.94 80.2413 38.885 80.3313 38.835C80.4213 38.775 80.5113 38.745 80.6013 38.745C80.7113 38.745 80.8013 38.775 80.8713 38.835C80.9413 38.885 81.0163 38.965 81.0963 39.075L82.2063 40.875C81.6663 41.325 81.0463 41.665 80.3463 41.895C79.6463 42.125 78.9213 42.24 78.1713 42.24ZM105.368 31.125V39.9C104.268 40.71 103.093 41.305 101.843 41.685C100.603 42.055 99.2734 42.24 97.8534 42.24C96.0834 42.24 94.4784 41.965 93.0384 41.415C91.6084 40.865 90.3834 40.1 89.3634 39.12C88.3534 38.14 87.5734 36.97 87.0234 35.61C86.4734 34.25 86.1984 32.765 86.1984 31.155C86.1984 29.525 86.4634 28.03 86.9934 26.67C87.5234 25.31 88.2734 24.14 89.2434 23.16C90.2234 22.18 91.4084 21.42 92.7984 20.88C94.1884 20.34 95.7484 20.07 97.4784 20.07C98.3584 20.07 99.1784 20.14 99.9384 20.28C100.708 20.42 101.418 20.615 102.068 20.865C102.728 21.105 103.328 21.4 103.868 21.75C104.408 22.1 104.903 22.485 105.353 22.905L104.198 24.735C104.018 25.025 103.783 25.205 103.493 25.275C103.203 25.335 102.888 25.26 102.548 25.05C102.218 24.86 101.888 24.67 101.558 24.48C101.228 24.29 100.858 24.125 100.448 23.985C100.048 23.845 99.5934 23.73 99.0834 23.64C98.5834 23.55 98.0034 23.505 97.3434 23.505C96.2734 23.505 95.3034 23.685 94.4334 24.045C93.5734 24.405 92.8384 24.92 92.2284 25.59C91.6184 26.26 91.1484 27.065 90.8184 28.005C90.4884 28.945 90.3234 29.995 90.3234 31.155C90.3234 32.395 90.4984 33.505 90.8484 34.485C91.2084 35.455 91.7084 36.28 92.3484 36.96C92.9984 37.63 93.7784 38.145 94.6884 38.505C95.5984 38.855 96.6134 39.03 97.7334 39.03C98.5334 39.03 99.2484 38.945 99.8784 38.775C100.508 38.605 101.123 38.375 101.723 38.085V34.155H98.9934C98.7334 34.155 98.5284 34.085 98.3784 33.945C98.2384 33.795 98.1684 33.615 98.1684 33.405V31.125H105.368ZM121.11 32.535C121.11 32.055 121.04 31.605 120.9 31.185C120.77 30.755 120.57 30.38 120.3 30.06C120.03 29.74 119.685 29.49 119.265 29.31C118.855 29.12 118.375 29.025 117.825 29.025C116.755 29.025 115.91 29.33 115.29 29.94C114.68 30.55 114.29 31.415 114.12 32.535H121.11ZM114.045 34.77C114.105 35.56 114.245 36.245 114.465 36.825C114.685 37.395 114.975 37.87 115.335 38.25C115.695 38.62 116.12 38.9 116.61 39.09C117.11 39.27 117.66 39.36 118.26 39.36C118.86 39.36 119.375 39.29 119.805 39.15C120.245 39.01 120.625 38.855 120.945 38.685C121.275 38.515 121.56 38.36 121.8 38.22C122.05 38.08 122.29 38.01 122.52 38.01C122.83 38.01 123.06 38.125 123.21 38.355L124.275 39.705C123.865 40.185 123.405 40.59 122.895 40.92C122.385 41.24 121.85 41.5 121.29 41.7C120.74 41.89 120.175 42.025 119.595 42.105C119.025 42.185 118.47 42.225 117.93 42.225C116.86 42.225 115.865 42.05 114.945 41.7C114.025 41.34 113.225 40.815 112.545 40.125C111.865 39.425 111.33 38.565 110.94 37.545C110.55 36.515 110.355 35.325 110.355 33.975C110.355 32.925 110.525 31.94 110.865 31.02C111.205 30.09 111.69 29.285 112.32 28.605C112.96 27.915 113.735 27.37 114.645 26.97C115.565 26.57 116.6 26.37 117.75 26.37C118.72 26.37 119.615 26.525 120.435 26.835C121.255 27.145 121.96 27.6 122.55 28.2C123.14 28.79 123.6 29.52 123.93 30.39C124.27 31.25 124.44 32.235 124.44 33.345C124.44 33.905 124.38 34.285 124.26 34.485C124.14 34.675 123.91 34.77 123.57 34.77H114.045ZM133.386 28.5C133.696 28.19 134.021 27.905 134.361 27.645C134.711 27.375 135.076 27.15 135.456 26.97C135.846 26.78 136.261 26.635 136.701 26.535C137.141 26.425 137.621 26.37 138.141 26.37C138.981 26.37 139.726 26.515 140.376 26.805C141.026 27.085 141.566 27.485 141.996 28.005C142.436 28.515 142.766 29.13 142.986 29.85C143.216 30.56 143.331 31.345 143.331 32.205V42H139.626V32.205C139.626 31.265 139.411 30.54 138.981 30.03C138.551 29.51 137.896 29.25 137.016 29.25C136.376 29.25 135.776 29.395 135.216 29.685C134.656 29.975 134.126 30.37 133.626 30.87V42H129.921V26.61H132.186C132.666 26.61 132.981 26.835 133.131 27.285L133.386 28.5Z" fill="black"/>
<path d="M8.51 54.3975C8.44867 54.5048 8.37967 54.5815 8.303 54.6275C8.22633 54.6735 8.1305 54.6965 8.0155 54.6965C7.88517 54.6965 7.74333 54.6582 7.59 54.5815C7.43667 54.4972 7.2565 54.4052 7.0495 54.3055C6.8425 54.2058 6.59717 54.1177 6.3135 54.041C6.0375 53.9567 5.71167 53.9145 5.336 53.9145C5.02933 53.9145 4.7495 53.9528 4.4965 54.0295C4.25117 54.0985 4.04033 54.202 3.864 54.34C3.69533 54.4703 3.565 54.6275 3.473 54.8115C3.381 54.9878 3.335 55.1795 3.335 55.3865C3.335 55.6625 3.41933 55.8925 3.588 56.0765C3.75667 56.2605 3.979 56.4215 4.255 56.5595C4.531 56.6898 4.84533 56.8087 5.198 56.916C5.55067 57.0233 5.911 57.1383 6.279 57.261C6.647 57.3837 7.00733 57.5255 7.36 57.6865C7.71267 57.8475 8.027 58.0468 8.303 58.2845C8.579 58.5145 8.80133 58.7982 8.97 59.1355C9.13867 59.4652 9.223 59.8677 9.223 60.343C9.223 60.895 9.12333 61.4048 8.924 61.8725C8.72467 62.3402 8.43333 62.7465 8.05 63.0915C7.66667 63.4365 7.1875 63.7048 6.6125 63.8965C6.04517 64.0882 5.3935 64.184 4.6575 64.184C4.25117 64.184 3.85633 64.1457 3.473 64.069C3.09733 64 2.737 63.9042 2.392 63.7815C2.05467 63.6512 1.7365 63.4978 1.4375 63.3215C1.14617 63.1452 0.8855 62.9535 0.6555 62.7465L1.2305 61.8035C1.2995 61.6885 1.38383 61.6003 1.4835 61.539C1.59083 61.47 1.72117 61.4355 1.8745 61.4355C2.0355 61.4355 2.19267 61.4892 2.346 61.5965C2.507 61.6962 2.691 61.8073 2.898 61.93C3.11267 62.0527 3.3695 62.1677 3.6685 62.275C3.9675 62.3747 4.33933 62.4245 4.784 62.4245C5.152 62.4245 5.47017 62.3823 5.7385 62.298C6.00683 62.206 6.22917 62.0833 6.4055 61.93C6.58183 61.7767 6.71217 61.6042 6.7965 61.4125C6.88083 61.2132 6.923 61.0023 6.923 60.78C6.923 60.481 6.83867 60.2357 6.67 60.044C6.50133 59.8523 6.27517 59.6875 5.9915 59.5495C5.7155 59.4115 5.39733 59.2888 5.037 59.1815C4.68433 59.0742 4.324 58.9592 3.956 58.8365C3.588 58.7138 3.22383 58.572 2.8635 58.411C2.51083 58.25 2.19267 58.0468 1.909 57.8015C1.633 57.5485 1.41067 57.2457 1.242 56.893C1.07333 56.5327 0.989 56.0957 0.989 55.582C0.989 55.1143 1.081 54.6697 1.265 54.248C1.45667 53.8263 1.73267 53.4545 2.093 53.1325C2.461 52.8105 2.9095 52.5575 3.4385 52.3735C3.97517 52.1818 4.59233 52.086 5.29 52.086C6.07967 52.086 6.7965 52.2125 7.4405 52.4655C8.0845 52.7185 8.625 53.0635 9.062 53.5005L8.51 54.3975ZM13.6165 64V52.27H15.1115C15.4489 52.27 15.6635 52.4272 15.7555 52.7415L15.9165 53.765C16.1312 53.5197 16.3535 53.2973 16.5835 53.098C16.8135 52.891 17.0589 52.7147 17.3195 52.569C17.5879 52.4157 17.8715 52.2968 18.1705 52.2125C18.4772 52.1282 18.8069 52.086 19.1595 52.086C19.5352 52.086 19.8802 52.1397 20.1945 52.247C20.5089 52.3543 20.7849 52.5077 21.0225 52.707C21.2679 52.9063 21.4787 53.1478 21.655 53.4315C21.8314 53.7152 21.977 54.0333 22.092 54.386C22.2684 53.9797 22.4907 53.6308 22.759 53.3395C23.0274 53.0482 23.3264 52.8105 23.656 52.6265C23.9857 52.4425 24.3345 52.3083 24.7025 52.224C25.0782 52.132 25.4577 52.086 25.841 52.086C26.4697 52.086 27.0294 52.1857 27.52 52.385C28.0184 52.5843 28.4362 52.8757 28.7735 53.259C29.1185 53.6347 29.3792 54.0985 29.5555 54.6505C29.7319 55.2025 29.82 55.8312 29.82 56.5365V64H27.3475V56.5365C27.3475 55.7085 27.1674 55.0875 26.807 54.6735C26.4544 54.2518 25.9292 54.041 25.2315 54.041C24.9172 54.041 24.622 54.0947 24.346 54.202C24.07 54.3093 23.8285 54.4665 23.6215 54.6735C23.4145 54.8805 23.2497 55.1412 23.127 55.4555C23.012 55.7622 22.9545 56.1225 22.9545 56.5365V64H20.482V56.5365C20.482 55.6778 20.3095 55.0492 19.9645 54.6505C19.6195 54.2442 19.1135 54.041 18.4465 54.041C17.9865 54.041 17.561 54.1598 17.17 54.3975C16.779 54.6275 16.4187 54.9457 16.089 55.352V64H13.6165ZM41.0458 58.871C40.1642 58.9017 39.4205 58.9745 38.8148 59.0895C38.2092 59.1968 37.7185 59.3387 37.3428 59.515C36.9672 59.6837 36.695 59.8868 36.5263 60.1245C36.3653 60.3622 36.2848 60.6228 36.2848 60.9065C36.2848 61.1825 36.327 61.4202 36.4113 61.6195C36.5033 61.8112 36.626 61.9722 36.7793 62.1025C36.9403 62.2252 37.1243 62.3172 37.3313 62.3785C37.546 62.4322 37.7798 62.459 38.0328 62.459C38.6768 62.459 39.2288 62.3402 39.6888 62.1025C40.1565 61.8572 40.6088 61.5045 41.0458 61.0445V58.871ZM34.4908 53.903C35.8172 52.6687 37.3965 52.0515 39.2288 52.0515C39.9035 52.0515 40.5015 52.1627 41.0228 52.385C41.5518 52.5997 41.9927 52.9063 42.3453 53.305C42.7057 53.7037 42.9778 54.179 43.1618 54.731C43.3535 55.2753 43.4493 55.881 43.4493 56.548V64H42.3453C42.1077 64 41.9275 63.9655 41.8048 63.8965C41.6822 63.8198 41.5787 63.6703 41.4943 63.448L41.2528 62.4935C40.9538 62.7618 40.6587 63.0033 40.3673 63.218C40.076 63.425 39.7732 63.6013 39.4588 63.747C39.1522 63.8927 38.8187 64 38.4583 64.069C38.1057 64.1457 37.7147 64.184 37.2853 64.184C36.81 64.184 36.3653 64.1188 35.9513 63.9885C35.545 63.8582 35.1923 63.6627 34.8933 63.402C34.5943 63.1337 34.3567 62.804 34.1803 62.413C34.0117 62.022 33.9273 61.562 33.9273 61.033C33.9273 60.5807 34.0462 60.1398 34.2838 59.7105C34.5292 59.2812 34.9278 58.8978 35.4798 58.5605C36.0395 58.2155 36.7717 57.9318 37.6763 57.7095C38.5887 57.4872 39.7118 57.3607 41.0458 57.33V56.548C41.0458 55.7047 40.8657 55.076 40.5053 54.662C40.145 54.248 39.616 54.041 38.9183 54.041C38.443 54.041 38.0443 54.1023 37.7223 54.225C37.4003 54.34 37.1205 54.4665 36.8828 54.6045C36.6452 54.7425 36.4343 54.8728 36.2503 54.9955C36.0663 55.1105 35.8708 55.168 35.6638 55.168C35.4952 55.168 35.3495 55.1258 35.2268 55.0415C35.1118 54.9495 35.016 54.8383 34.9393 54.708L34.4908 53.903ZM50.7502 54.4435C51.1182 53.6998 51.5629 53.1172 52.0842 52.6955C52.6056 52.2662 53.2304 52.0515 53.9587 52.0515C54.2117 52.0515 54.4494 52.0822 54.6717 52.1435C54.8941 52.1972 55.0934 52.2815 55.2697 52.3965L55.0972 54.2595C55.0666 54.3898 55.0167 54.4818 54.9477 54.5355C54.8864 54.5815 54.8021 54.6045 54.6947 54.6045C54.5797 54.6045 54.4149 54.5853 54.2002 54.547C53.9856 54.501 53.7594 54.478 53.5217 54.478C53.1767 54.478 52.8701 54.5278 52.6017 54.6275C52.3411 54.7272 52.1034 54.8728 51.8887 55.0645C51.6817 55.2562 51.4977 55.49 51.3367 55.766C51.1757 56.042 51.0262 56.3563 50.8882 56.709V64H48.4157V52.27H49.8532C50.1139 52.27 50.2941 52.3198 50.3937 52.4195C50.4934 52.5115 50.5624 52.6763 50.6007 52.914L50.7502 54.4435ZM62.7365 64.184C61.7628 64.184 61.0115 63.9118 60.4825 63.3675C59.9611 62.8155 59.7005 62.0412 59.7005 61.0445V54.2135H58.4125C58.2745 54.2135 58.1556 54.1713 58.056 54.087C57.9563 53.995 57.9065 53.8608 57.9065 53.6845V52.684L59.804 52.408L60.3445 49.0155C60.3828 48.8852 60.448 48.7817 60.54 48.705C60.632 48.6207 60.7546 48.5785 60.908 48.5785H62.173V52.431H65.4275V54.2135H62.173V60.872C62.173 61.2937 62.2765 61.6157 62.4835 61.838C62.6905 62.0603 62.9665 62.1715 63.3115 62.1715C63.5031 62.1715 63.668 62.1485 63.806 62.1025C63.944 62.0488 64.0628 61.9952 64.1625 61.9415C64.2621 61.8802 64.3465 61.8265 64.4155 61.7805C64.4921 61.7268 64.565 61.7 64.634 61.7C64.772 61.7 64.8831 61.7767 64.9675 61.93L65.7035 63.1375C65.3201 63.4748 64.8678 63.7355 64.3465 63.9195C63.8251 64.0958 63.2885 64.184 62.7365 64.184ZM71.9188 61.056C72.2638 61.5007 72.6395 61.815 73.0458 61.999C73.4598 62.1753 73.916 62.2635 74.4143 62.2635C75.3803 62.2635 76.1317 61.9108 76.6683 61.2055C77.2127 60.5002 77.4848 59.4498 77.4848 58.0545C77.4848 57.3338 77.4235 56.7205 77.3008 56.2145C77.1782 55.7008 77.0018 55.283 76.7718 54.961C76.5418 54.639 76.262 54.4052 75.9323 54.2595C75.6027 54.1138 75.2308 54.041 74.8168 54.041C74.1882 54.041 73.6438 54.179 73.1838 54.455C72.7315 54.7233 72.3098 55.1105 71.9188 55.6165V61.056ZM71.7923 53.972C72.283 53.397 72.8388 52.9332 73.4598 52.5805C74.0885 52.2278 74.8168 52.0515 75.6448 52.0515C76.3042 52.0515 76.9022 52.1857 77.4388 52.454C77.9755 52.7147 78.4355 53.098 78.8188 53.604C79.2022 54.11 79.4973 54.7387 79.7043 55.49C79.919 56.2337 80.0263 57.0885 80.0263 58.0545C80.0263 58.9208 79.9075 59.7297 79.6698 60.481C79.4398 61.2247 79.1063 61.8725 78.6693 62.4245C78.2323 62.9688 77.7033 63.3982 77.0823 63.7125C76.4613 64.0192 75.7598 64.1725 74.9778 64.1725C74.2878 64.1725 73.7013 64.0613 73.2183 63.839C72.743 63.6167 72.3098 63.31 71.9188 62.919V67.8985H69.4463V52.27H70.9413C71.2787 52.27 71.4933 52.4272 71.5853 52.7415L71.7923 53.972ZM86.9713 53.6615C87.4543 53.1862 87.9833 52.8067 88.5583 52.523C89.1333 52.2317 89.8041 52.086 90.5708 52.086C91.2148 52.086 91.7783 52.1933 92.2613 52.408C92.7519 52.6227 93.1621 52.9255 93.4918 53.3165C93.8291 53.7075 94.0821 54.179 94.2508 54.731C94.4194 55.2753 94.5038 55.8772 94.5038 56.5365V64H92.0428V56.5365C92.0428 55.7468 91.8588 55.1335 91.4908 54.6965C91.1304 54.2595 90.5784 54.041 89.8348 54.041C89.2828 54.041 88.7691 54.1675 88.2938 54.4205C87.8261 54.6735 87.3853 55.0185 86.9713 55.4555V64H84.4988V46.98H86.9713V53.6615ZM104.533 52.086C105.399 52.086 106.181 52.2278 106.879 52.5115C107.584 52.7952 108.182 53.1977 108.673 53.719C109.171 54.2403 109.555 54.8728 109.823 55.6165C110.091 56.3602 110.225 57.1958 110.225 58.1235C110.225 59.0512 110.091 59.8868 109.823 60.6305C109.555 61.3742 109.171 62.0105 108.673 62.5395C108.182 63.0608 107.584 63.4633 106.879 63.747C106.181 64.0307 105.399 64.1725 104.533 64.1725C103.659 64.1725 102.869 64.0307 102.164 63.747C101.466 63.4633 100.868 63.0608 100.37 62.5395C99.8715 62.0105 99.4882 61.3742 99.2198 60.6305C98.9515 59.8868 98.8173 59.0512 98.8173 58.1235C98.8173 57.1958 98.9515 56.3602 99.2198 55.6165C99.4882 54.8728 99.8715 54.2403 100.37 53.719C100.868 53.1977 101.466 52.7952 102.164 52.5115C102.869 52.2278 103.659 52.086 104.533 52.086ZM104.533 62.2405C105.591 62.2405 106.377 61.8878 106.89 61.1825C107.412 60.4695 107.672 59.4537 107.672 58.135C107.672 56.8163 107.412 55.8005 106.89 55.0875C106.377 54.3668 105.591 54.0065 104.533 54.0065C103.46 54.0065 102.662 54.3668 102.141 55.0875C101.62 55.8005 101.359 56.8163 101.359 58.135C101.359 59.4537 101.62 60.4695 102.141 61.1825C102.662 61.8878 103.46 62.2405 104.533 62.2405ZM116.982 53.8225C117.235 53.5618 117.496 53.328 117.764 53.121C118.04 52.9063 118.332 52.7223 118.638 52.569C118.945 52.4157 119.271 52.2968 119.616 52.2125C119.961 52.1282 120.337 52.086 120.743 52.086C121.387 52.086 121.95 52.1933 122.433 52.408C122.924 52.6227 123.334 52.9255 123.664 53.3165C124.001 53.7075 124.254 54.179 124.423 54.731C124.592 55.2753 124.676 55.8772 124.676 56.5365V64H122.215V56.5365C122.215 55.7468 122.031 55.1335 121.663 54.6965C121.303 54.2595 120.751 54.041 120.007 54.041C119.455 54.041 118.941 54.1675 118.466 54.4205C117.998 54.6735 117.557 55.0185 117.143 55.4555V64H114.671V52.27H116.166C116.503 52.27 116.718 52.4272 116.81 52.7415L116.982 53.8225ZM137.327 56.8125C137.327 56.3985 137.266 56.0152 137.143 55.6625C137.028 55.3022 136.856 54.9917 136.626 54.731C136.396 54.4627 136.108 54.2557 135.763 54.11C135.426 53.9567 135.035 53.88 134.59 53.88C133.693 53.88 132.988 54.1368 132.474 54.6505C131.96 55.1642 131.635 55.8848 131.497 56.8125H137.327ZM131.428 58.3305C131.458 58.9975 131.562 59.5763 131.738 60.067C131.914 60.55 132.148 60.9525 132.44 61.2745C132.739 61.5965 133.091 61.838 133.498 61.999C133.912 62.1523 134.372 62.229 134.878 62.229C135.361 62.229 135.778 62.1753 136.131 62.068C136.484 61.953 136.79 61.8303 137.051 61.7C137.312 61.562 137.534 61.4393 137.718 61.332C137.902 61.217 138.071 61.1595 138.224 61.1595C138.423 61.1595 138.577 61.2362 138.684 61.3895L139.386 62.298C139.094 62.643 138.765 62.9343 138.397 63.172C138.029 63.4097 137.638 63.6052 137.224 63.7585C136.81 63.9042 136.384 64.0077 135.947 64.069C135.51 64.138 135.085 64.1725 134.671 64.1725C133.858 64.1725 133.103 64.0383 132.405 63.77C131.715 63.494 131.113 63.0915 130.6 62.5625C130.094 62.0335 129.695 61.378 129.404 60.596C129.12 59.814 128.978 58.9132 128.978 57.8935C128.978 57.0808 129.105 56.3218 129.358 55.6165C129.618 54.9112 129.986 54.2978 130.462 53.7765C130.945 53.2552 131.527 52.845 132.21 52.546C132.9 52.2393 133.678 52.086 134.544 52.086C135.265 52.086 135.932 52.2048 136.545 52.4425C137.158 52.6725 137.687 53.0137 138.132 53.466C138.577 53.9183 138.922 54.4742 139.167 55.1335C139.42 55.7852 139.547 56.5288 139.547 57.3645C139.547 57.7478 139.504 58.0047 139.42 58.135C139.336 58.2653 139.182 58.3305 138.96 58.3305H131.428ZM150.926 54.3975C150.864 54.5048 150.795 54.5815 150.719 54.6275C150.642 54.6735 150.546 54.6965 150.431 54.6965C150.301 54.6965 150.159 54.6582 150.006 54.5815C149.852 54.4972 149.672 54.4052 149.465 54.3055C149.258 54.2058 149.013 54.1177 148.729 54.041C148.453 53.9567 148.127 53.9145 147.752 53.9145C147.445 53.9145 147.165 53.9528 146.912 54.0295C146.667 54.0985 146.456 54.202 146.28 54.34C146.111 54.4703 145.981 54.6275 145.889 54.8115C145.797 54.9878 145.751 55.1795 145.751 55.3865C145.751 55.6625 145.835 55.8925 146.004 56.0765C146.172 56.2605 146.395 56.4215 146.671 56.5595C146.947 56.6898 147.261 56.8087 147.614 56.916C147.966 57.0233 148.327 57.1383 148.695 57.261C149.063 57.3837 149.423 57.5255 149.776 57.6865C150.128 57.8475 150.443 58.0468 150.719 58.2845C150.995 58.5145 151.217 58.7982 151.386 59.1355C151.554 59.4652 151.639 59.8677 151.639 60.343C151.639 60.895 151.539 61.4048 151.34 61.8725C151.14 62.3402 150.849 62.7465 150.466 63.0915C150.082 63.4365 149.603 63.7048 149.028 63.8965C148.461 64.0882 147.809 64.184 147.073 64.184C146.667 64.184 146.272 64.1457 145.889 64.069C145.513 64 145.153 63.9042 144.808 63.7815C144.47 63.6512 144.152 63.4978 143.853 63.3215C143.562 63.1452 143.301 62.9535 143.071 62.7465L143.646 61.8035C143.715 61.6885 143.8 61.6003 143.899 61.539C144.007 61.47 144.137 61.4355 144.29 61.4355C144.451 61.4355 144.608 61.4892 144.762 61.5965C144.923 61.6962 145.107 61.8073 145.314 61.93C145.528 62.0527 145.785 62.1677 146.084 62.275C146.383 62.3747 146.755 62.4245 147.2 62.4245C147.568 62.4245 147.886 62.3823 148.154 62.298C148.423 62.206 148.645 62.0833 148.821 61.93C148.998 61.7767 149.128 61.6042 149.212 61.4125C149.297 61.2132 149.339 61.0023 149.339 60.78C149.339 60.481 149.254 60.2357 149.086 60.044C148.917 59.8523 148.691 59.6875 148.407 59.5495C148.131 59.4115 147.813 59.2888 147.453 59.1815C147.1 59.0742 146.74 58.9592 146.372 58.8365C146.004 58.7138 145.64 58.572 145.279 58.411C144.927 58.25 144.608 58.0468 144.325 57.8015C144.049 57.5485 143.826 57.2457 143.658 56.893C143.489 56.5327 143.405 56.0957 143.405 55.582C143.405 55.1143 143.497 54.6697 143.681 54.248C143.872 53.8263 144.148 53.4545 144.509 53.1325C144.877 52.8105 145.325 52.5575 145.854 52.3735C146.391 52.1818 147.008 52.086 147.706 52.086C148.495 52.086 149.212 52.2125 149.856 52.4655C150.5 52.7185 151.041 53.0635 151.478 53.5005L150.926 54.3975Z" fill="black"/>
</svg>
